<?xml version="1.0" encoding="UTF-8"?>
<svg xmlns="http://www.w3.org/2000/svg" xmlns:xlink="http://www.w3.org/1999/xlink" width="1920" height="1080" viewBox="0 0 1920 1080">
<defs>
<g>
<g id="glyph-0-0">
<path d="M 0.0742188 -0.101562 C 0.546875 -0.613281 0.855469 -0.972656 1 -1.171875 C 1.21875 -1.476562 1.332031 -1.746094 1.332031 -1.980469 C 1.332031 -2.117188 1.289062 -2.246094 1.203125 -2.367188 C 1.117188 -2.488281 0.988281 -2.550781 0.808594 -2.550781 C 0.652344 -2.550781 0.523438 -2.496094 0.414062 -2.386719 C 0.355469 -2.328125 0.304688 -2.25 0.261719 -2.148438 L 0.140625 -2.148438 C 0.238281 -2.457031 0.375 -2.683594 0.546875 -2.832031 C 0.71875 -2.980469 0.914062 -3.054688 1.132812 -3.054688 C 1.339844 -3.054688 1.523438 -2.984375 1.691406 -2.839844 C 1.859375 -2.699219 1.945312 -2.488281 1.945312 -2.214844 C 1.945312 -2.070312 1.90625 -1.921875 1.824219 -1.769531 C 1.746094 -1.617188 1.613281 -1.453125 1.429688 -1.273438 L 0.75 -0.628906 L 0.75 -0.589844 L 1.382812 -0.589844 C 1.601562 -0.589844 1.746094 -0.609375 1.8125 -0.644531 C 1.878906 -0.679688 1.949219 -0.777344 2.015625 -0.933594 L 2.121094 -0.933594 L 1.921875 0 L 0.0742188 0 Z "/>
</g>
</g>
</defs>
<g fill="rgb(100%, 100%, 100%)" fill-opacity="1">
<use xlink:href="#glyph-0-0" x="30" y="23.333008"/>
</g>
</svg>
