<?xml version="1.0" encoding="UTF-8"?>
<svg xmlns="http://www.w3.org/2000/svg" xmlns:xlink="http://www.w3.org/1999/xlink" width="854" height="480" viewBox="0 0 854 480">
<defs>
<g>
<g id="glyph-0-0">
<path d="M 0.265625 -0.0703125 C 0.398438 -0.0820312 0.492188 -0.101562 0.542969 -0.128906 C 0.632812 -0.175781 0.699219 -0.265625 0.734375 -0.398438 L 1.378906 -2.746094 C 1.035156 -2.746094 0.8125 -2.71875 0.699219 -2.667969 C 0.589844 -2.617188 0.464844 -2.460938 0.316406 -2.199219 L 0.242188 -2.214844 L 0.425781 -2.898438 L 2.792969 -2.898438 L 2.597656 -2.175781 L 2.519531 -2.183594 L 2.53125 -2.339844 C 2.53125 -2.476562 2.5 -2.578125 2.4375 -2.644531 C 2.375 -2.710938 2.253906 -2.746094 2.074219 -2.746094 L 1.824219 -2.746094 L 1.207031 -0.535156 C 1.195312 -0.488281 1.183594 -0.445312 1.175781 -0.40625 C 1.164062 -0.347656 1.15625 -0.304688 1.15625 -0.269531 C 1.15625 -0.183594 1.183594 -0.128906 1.238281 -0.109375 C 1.289062 -0.0898438 1.394531 -0.0742188 1.550781 -0.0703125 L 1.550781 0 L 0.265625 0 Z "/>
</g>
<g id="glyph-0-1">
<path d="M 0.492188 -2.910156 C 0.585938 -2.921875 0.660156 -2.933594 0.71875 -2.941406 C 0.773438 -2.949219 0.824219 -2.957031 0.867188 -2.964844 C 1.035156 -2.996094 1.128906 -3.015625 1.140625 -3.019531 C 1.152344 -3.023438 1.164062 -3.023438 1.171875 -3.023438 C 1.1875 -3.015625 1.199219 -3.003906 1.199219 -2.992188 L 0.6875 -1.050781 C 0.871094 -1.320312 1.019531 -1.519531 1.136719 -1.644531 C 1.339844 -1.859375 1.523438 -1.964844 1.691406 -1.964844 C 1.761719 -1.964844 1.828125 -1.941406 1.894531 -1.898438 C 1.957031 -1.855469 1.988281 -1.773438 1.988281 -1.660156 C 1.988281 -1.632812 1.988281 -1.597656 1.980469 -1.554688 C 1.972656 -1.511719 1.964844 -1.472656 1.953125 -1.4375 L 1.660156 -0.398438 C 1.652344 -0.371094 1.644531 -0.34375 1.636719 -0.316406 C 1.632812 -0.289062 1.628906 -0.265625 1.628906 -0.242188 C 1.628906 -0.21875 1.636719 -0.199219 1.648438 -0.1875 C 1.660156 -0.175781 1.675781 -0.167969 1.695312 -0.167969 C 1.742188 -0.167969 1.792969 -0.199219 1.855469 -0.261719 C 1.894531 -0.300781 1.964844 -0.386719 2.066406 -0.519531 L 2.121094 -0.464844 C 2.019531 -0.316406 1.933594 -0.207031 1.863281 -0.136719 C 1.738281 -0.015625 1.613281 0.046875 1.484375 0.046875 C 1.425781 0.046875 1.378906 0.03125 1.339844 -0.0078125 C 1.300781 -0.0429688 1.28125 -0.09375 1.28125 -0.164062 C 1.28125 -0.183594 1.28125 -0.199219 1.285156 -0.214844 C 1.285156 -0.230469 1.289062 -0.25 1.296875 -0.269531 L 1.628906 -1.542969 C 1.632812 -1.554688 1.636719 -1.566406 1.636719 -1.578125 C 1.640625 -1.589844 1.640625 -1.605469 1.640625 -1.617188 C 1.640625 -1.652344 1.628906 -1.679688 1.609375 -1.703125 C 1.585938 -1.722656 1.554688 -1.730469 1.519531 -1.730469 C 1.421875 -1.730469 1.300781 -1.652344 1.152344 -1.5 C 1.003906 -1.34375 0.878906 -1.183594 0.777344 -1.023438 C 0.710938 -0.910156 0.65625 -0.800781 0.621094 -0.699219 C 0.585938 -0.597656 0.519531 -0.363281 0.417969 0 L 0.0820312 0 L 0.773438 -2.632812 C 0.777344 -2.652344 0.78125 -2.667969 0.785156 -2.679688 C 0.785156 -2.691406 0.785156 -2.707031 0.785156 -2.71875 C 0.785156 -2.78125 0.765625 -2.816406 0.726562 -2.828125 C 0.683594 -2.839844 0.605469 -2.84375 0.492188 -2.839844 Z "/>
</g>
<g id="glyph-0-2">
<path d="M 0.140625 -0.574219 C 0.140625 -0.894531 0.285156 -1.207031 0.574219 -1.507812 C 0.859375 -1.808594 1.15625 -1.960938 1.460938 -1.960938 C 1.574219 -1.960938 1.664062 -1.933594 1.730469 -1.882812 C 1.796875 -1.828125 1.828125 -1.753906 1.828125 -1.648438 C 1.828125 -1.441406 1.707031 -1.261719 1.464844 -1.113281 C 1.21875 -0.964844 0.964844 -0.875 0.695312 -0.84375 L 0.570312 -0.828125 C 0.550781 -0.769531 0.539062 -0.71875 0.53125 -0.683594 C 0.523438 -0.648438 0.519531 -0.605469 0.519531 -0.550781 C 0.519531 -0.421875 0.5625 -0.324219 0.644531 -0.253906 C 0.726562 -0.183594 0.828125 -0.148438 0.941406 -0.148438 C 1.050781 -0.148438 1.164062 -0.183594 1.285156 -0.257812 C 1.355469 -0.296875 1.457031 -0.375 1.589844 -0.480469 L 1.644531 -0.433594 C 1.578125 -0.351562 1.488281 -0.265625 1.363281 -0.179688 C 1.148438 -0.0234375 0.933594 0.0546875 0.714844 0.0546875 C 0.5625 0.0546875 0.429688 0 0.3125 -0.109375 C 0.195312 -0.21875 0.140625 -0.371094 0.140625 -0.574219 Z M 0.601562 -0.925781 C 0.878906 -0.964844 1.101562 -1.0625 1.277344 -1.214844 C 1.449219 -1.371094 1.535156 -1.523438 1.535156 -1.675781 C 1.535156 -1.730469 1.523438 -1.773438 1.496094 -1.804688 C 1.472656 -1.839844 1.433594 -1.855469 1.382812 -1.855469 C 1.289062 -1.855469 1.195312 -1.816406 1.105469 -1.734375 C 1.015625 -1.65625 0.933594 -1.5625 0.863281 -1.460938 C 0.785156 -1.34375 0.722656 -1.230469 0.679688 -1.121094 C 0.65625 -1.0625 0.628906 -1 0.601562 -0.925781 Z "/>
</g>
<g id="glyph-0-3">
<rect x="0" y="0" width="0" height="0" mask="url(#mask-0)"/>
</g>
<g id="glyph-0-4">
<path d="M 1.390625 -1.960938 C 1.566406 -1.960938 1.691406 -1.917969 1.769531 -1.839844 C 1.847656 -1.761719 1.886719 -1.683594 1.886719 -1.609375 C 1.886719 -1.539062 1.867188 -1.488281 1.828125 -1.449219 C 1.785156 -1.410156 1.738281 -1.394531 1.683594 -1.394531 C 1.628906 -1.394531 1.585938 -1.410156 1.550781 -1.441406 C 1.515625 -1.476562 1.496094 -1.519531 1.496094 -1.566406 C 1.496094 -1.605469 1.507812 -1.644531 1.53125 -1.6875 C 1.554688 -1.730469 1.566406 -1.761719 1.566406 -1.773438 C 1.566406 -1.800781 1.550781 -1.820312 1.523438 -1.839844 C 1.492188 -1.859375 1.445312 -1.867188 1.378906 -1.867188 C 1.148438 -1.867188 0.945312 -1.734375 0.773438 -1.46875 C 0.601562 -1.203125 0.515625 -0.925781 0.515625 -0.636719 C 0.515625 -0.472656 0.550781 -0.34375 0.621094 -0.25 C 0.691406 -0.160156 0.792969 -0.113281 0.933594 -0.113281 C 1.042969 -0.113281 1.152344 -0.144531 1.257812 -0.210938 C 1.363281 -0.273438 1.460938 -0.355469 1.546875 -0.457031 L 1.5625 -0.472656 L 1.625 -0.425781 C 1.523438 -0.296875 1.425781 -0.199219 1.332031 -0.128906 C 1.164062 -0.0078125 0.980469 0.0507812 0.777344 0.0507812 C 0.585938 0.0507812 0.429688 -0.0078125 0.308594 -0.132812 C 0.1875 -0.257812 0.128906 -0.425781 0.128906 -0.640625 C 0.128906 -0.96875 0.261719 -1.269531 0.53125 -1.546875 C 0.792969 -1.820312 1.082031 -1.960938 1.390625 -1.960938 Z "/>
</g>
<g id="glyph-0-5">
<path d="M 0.492188 -0.464844 C 0.492188 -0.347656 0.523438 -0.246094 0.582031 -0.167969 C 0.640625 -0.0898438 0.730469 -0.0507812 0.847656 -0.0507812 C 1.082031 -0.0507812 1.292969 -0.226562 1.472656 -0.582031 C 1.628906 -0.886719 1.707031 -1.167969 1.707031 -1.425781 C 1.707031 -1.535156 1.691406 -1.621094 1.667969 -1.6875 C 1.617188 -1.8125 1.523438 -1.878906 1.390625 -1.878906 C 1.167969 -1.878906 0.960938 -1.710938 0.765625 -1.378906 C 0.582031 -1.070312 0.492188 -0.765625 0.492188 -0.464844 Z M 1.414062 -1.96875 C 1.65625 -1.96875 1.828125 -1.902344 1.925781 -1.773438 C 2.027344 -1.644531 2.078125 -1.492188 2.078125 -1.316406 C 2.078125 -1.007812 1.941406 -0.707031 1.671875 -0.414062 C 1.390625 -0.105469 1.09375 0.046875 0.777344 0.046875 C 0.578125 0.046875 0.417969 -0.0117188 0.296875 -0.125 C 0.175781 -0.242188 0.117188 -0.40625 0.117188 -0.613281 C 0.117188 -0.929688 0.25 -1.234375 0.519531 -1.523438 C 0.796875 -1.820312 1.09375 -1.96875 1.414062 -1.96875 Z "/>
</g>
<g id="glyph-0-6">
<path d="M 0.0820312 0 L 0.457031 -1.339844 C 0.488281 -1.453125 0.507812 -1.523438 0.511719 -1.546875 C 0.515625 -1.570312 0.519531 -1.597656 0.519531 -1.625 C 0.519531 -1.664062 0.507812 -1.699219 0.484375 -1.722656 C 0.460938 -1.746094 0.414062 -1.757812 0.34375 -1.757812 C 0.324219 -1.757812 0.308594 -1.757812 0.292969 -1.753906 C 0.277344 -1.753906 0.257812 -1.75 0.238281 -1.746094 L 0.238281 -1.820312 C 0.332031 -1.835938 0.398438 -1.847656 0.4375 -1.851562 C 0.476562 -1.859375 0.519531 -1.871094 0.566406 -1.878906 L 0.953125 -1.964844 C 0.964844 -1.957031 0.96875 -1.953125 0.972656 -1.945312 L 0.683594 -1.011719 C 0.859375 -1.28125 1.007812 -1.484375 1.125 -1.613281 C 1.335938 -1.847656 1.519531 -1.964844 1.6875 -1.964844 C 1.75 -1.964844 1.804688 -1.953125 1.851562 -1.925781 C 1.941406 -1.878906 1.984375 -1.792969 1.984375 -1.667969 C 1.984375 -1.632812 1.980469 -1.597656 1.972656 -1.558594 C 1.964844 -1.523438 1.957031 -1.480469 1.945312 -1.4375 L 1.660156 -0.398438 C 1.65625 -0.378906 1.648438 -0.351562 1.640625 -0.320312 C 1.632812 -0.289062 1.628906 -0.265625 1.628906 -0.253906 C 1.628906 -0.230469 1.636719 -0.210938 1.644531 -0.195312 C 1.65625 -0.179688 1.671875 -0.167969 1.695312 -0.167969 C 1.734375 -0.167969 1.777344 -0.191406 1.824219 -0.234375 C 1.875 -0.277344 1.953125 -0.375 2.066406 -0.519531 L 2.128906 -0.460938 C 2.011719 -0.300781 1.917969 -0.1875 1.847656 -0.125 C 1.726562 -0.0117188 1.613281 0.046875 1.507812 0.046875 C 1.457031 0.046875 1.410156 0.03125 1.363281 0 C 1.316406 -0.0351562 1.296875 -0.09375 1.296875 -0.179688 C 1.296875 -0.203125 1.296875 -0.230469 1.300781 -0.257812 C 1.304688 -0.285156 1.308594 -0.308594 1.316406 -0.328125 L 1.589844 -1.382812 C 1.601562 -1.441406 1.613281 -1.488281 1.617188 -1.523438 C 1.621094 -1.5625 1.625 -1.585938 1.625 -1.605469 C 1.625 -1.640625 1.617188 -1.667969 1.601562 -1.695312 C 1.585938 -1.71875 1.554688 -1.730469 1.511719 -1.730469 C 1.402344 -1.730469 1.265625 -1.632812 1.101562 -1.4375 C 1.003906 -1.320312 0.90625 -1.179688 0.808594 -1.019531 C 0.730469 -0.890625 0.671875 -0.769531 0.625 -0.648438 C 0.582031 -0.53125 0.511719 -0.3125 0.417969 0 Z "/>
</g>
<g id="glyph-0-7">
<path d="M 0.167969 -0.144531 C 0.167969 -0.15625 0.167969 -0.167969 0.167969 -0.183594 C 0.171875 -0.199219 0.171875 -0.214844 0.179688 -0.230469 L 0.585938 -1.746094 L 0.257812 -1.746094 C 0.257812 -1.785156 0.257812 -1.8125 0.265625 -1.820312 C 0.269531 -1.832031 0.285156 -1.839844 0.308594 -1.851562 C 0.453125 -1.914062 0.566406 -1.972656 0.648438 -2.03125 C 0.726562 -2.089844 0.835938 -2.199219 0.976562 -2.367188 L 1.011719 -2.40625 C 1.015625 -2.414062 1.019531 -2.417969 1.027344 -2.421875 C 1.035156 -2.425781 1.039062 -2.425781 1.046875 -2.425781 C 1.0625 -2.421875 1.074219 -2.421875 1.078125 -2.417969 C 1.082031 -2.40625 1.085938 -2.398438 1.085938 -2.390625 C 1.085938 -2.382812 1.085938 -2.375 1.085938 -2.367188 L 0.960938 -1.890625 L 1.316406 -1.890625 L 1.289062 -1.746094 L 0.921875 -1.746094 L 0.53125 -0.285156 C 0.523438 -0.261719 0.523438 -0.234375 0.535156 -0.210938 C 0.546875 -0.1875 0.566406 -0.175781 0.59375 -0.175781 C 0.632812 -0.175781 0.683594 -0.214844 0.753906 -0.289062 C 0.792969 -0.328125 0.859375 -0.410156 0.949219 -0.53125 L 1.007812 -0.496094 L 0.976562 -0.453125 C 0.851562 -0.265625 0.742188 -0.136719 0.648438 -0.0625 C 0.554688 0.0117188 0.464844 0.046875 0.378906 0.046875 C 0.304688 0.046875 0.25 0.0273438 0.21875 -0.0117188 C 0.183594 -0.0507812 0.167969 -0.09375 0.167969 -0.144531 Z "/>
</g>
<g id="glyph-0-8">
<path d="M 0.90625 -1.976562 C 0.917969 -1.976562 0.925781 -1.972656 0.933594 -1.960938 C 0.9375 -1.953125 0.941406 -1.945312 0.941406 -1.9375 C 0.9375 -1.921875 0.9375 -1.910156 0.933594 -1.902344 L 0.71875 -1.0625 L 0.765625 -1.15625 C 0.871094 -1.359375 0.992188 -1.546875 1.132812 -1.714844 C 1.273438 -1.882812 1.402344 -1.96875 1.53125 -1.96875 C 1.597656 -1.96875 1.648438 -1.945312 1.6875 -1.902344 C 1.722656 -1.855469 1.742188 -1.804688 1.742188 -1.746094 C 1.742188 -1.679688 1.722656 -1.628906 1.6875 -1.585938 C 1.652344 -1.542969 1.597656 -1.519531 1.535156 -1.519531 C 1.488281 -1.519531 1.457031 -1.53125 1.433594 -1.546875 C 1.410156 -1.566406 1.390625 -1.585938 1.378906 -1.609375 L 1.351562 -1.65625 C 1.347656 -1.664062 1.339844 -1.671875 1.332031 -1.675781 C 1.324219 -1.679688 1.3125 -1.683594 1.300781 -1.683594 C 1.246094 -1.683594 1.164062 -1.605469 1.058594 -1.449219 C 0.953125 -1.289062 0.855469 -1.117188 0.773438 -0.933594 C 0.722656 -0.824219 0.664062 -0.675781 0.601562 -0.492188 C 0.5625 -0.375 0.511719 -0.210938 0.445312 0 L 0.113281 0 L 0.472656 -1.304688 C 0.492188 -1.382812 0.507812 -1.449219 0.523438 -1.507812 C 0.535156 -1.566406 0.539062 -1.617188 0.539062 -1.652344 C 0.539062 -1.695312 0.53125 -1.730469 0.507812 -1.753906 C 0.484375 -1.777344 0.449219 -1.789062 0.394531 -1.789062 C 0.378906 -1.789062 0.355469 -1.785156 0.328125 -1.785156 C 0.304688 -1.78125 0.273438 -1.777344 0.238281 -1.773438 L 0.238281 -1.84375 L 0.324219 -1.863281 C 0.4375 -1.886719 0.558594 -1.910156 0.691406 -1.9375 C 0.828125 -1.960938 0.898438 -1.976562 0.90625 -1.976562 Z "/>
</g>
<g id="glyph-0-9">
<path d="M 1.617188 -1.566406 C 1.617188 -1.671875 1.59375 -1.746094 1.546875 -1.796875 C 1.5 -1.847656 1.441406 -1.871094 1.375 -1.871094 C 1.136719 -1.871094 0.917969 -1.691406 0.714844 -1.328125 C 0.539062 -1.011719 0.449219 -0.734375 0.449219 -0.503906 C 0.449219 -0.390625 0.472656 -0.304688 0.523438 -0.253906 C 0.574219 -0.199219 0.636719 -0.171875 0.710938 -0.171875 C 0.929688 -0.171875 1.136719 -0.347656 1.339844 -0.699219 C 1.527344 -1.019531 1.617188 -1.308594 1.617188 -1.566406 Z M 1.347656 -1.96875 C 1.460938 -1.96875 1.550781 -1.9375 1.613281 -1.878906 C 1.644531 -1.847656 1.671875 -1.804688 1.691406 -1.753906 L 1.703125 -1.722656 L 1.75 -1.886719 C 1.753906 -1.90625 1.761719 -1.917969 1.765625 -1.925781 C 1.769531 -1.933594 1.777344 -1.9375 1.792969 -1.9375 L 2.039062 -1.964844 C 2.050781 -1.964844 2.058594 -1.964844 2.0625 -1.957031 C 2.066406 -1.953125 2.066406 -1.945312 2.0625 -1.929688 C 2.054688 -1.910156 2.050781 -1.898438 2.046875 -1.886719 C 2.046875 -1.875 2.042969 -1.859375 2.035156 -1.839844 L 1.835938 -1.0625 C 1.792969 -0.894531 1.753906 -0.746094 1.726562 -0.625 C 1.671875 -0.402344 1.644531 -0.273438 1.644531 -0.242188 C 1.644531 -0.222656 1.648438 -0.207031 1.660156 -0.199219 C 1.671875 -0.1875 1.683594 -0.183594 1.703125 -0.183594 C 1.714844 -0.183594 1.726562 -0.1875 1.742188 -0.199219 C 1.757812 -0.207031 1.777344 -0.21875 1.800781 -0.238281 L 1.835938 -0.265625 C 1.847656 -0.277344 1.859375 -0.289062 1.875 -0.300781 C 1.890625 -0.316406 1.90625 -0.332031 1.925781 -0.355469 L 2.0625 -0.492188 L 2.113281 -0.445312 C 1.964844 -0.253906 1.84375 -0.125 1.75 -0.0546875 C 1.660156 0.0117188 1.574219 0.046875 1.492188 0.046875 C 1.4375 0.046875 1.394531 0.0273438 1.367188 -0.0078125 C 1.335938 -0.046875 1.320312 -0.09375 1.320312 -0.148438 C 1.320312 -0.203125 1.332031 -0.277344 1.351562 -0.375 C 1.371094 -0.472656 1.390625 -0.554688 1.410156 -0.621094 C 1.382812 -0.578125 1.339844 -0.515625 1.277344 -0.429688 C 1.214844 -0.347656 1.140625 -0.265625 1.050781 -0.1875 C 0.945312 -0.09375 0.84375 -0.0273438 0.746094 0.0117188 C 0.671875 0.0390625 0.597656 0.0507812 0.53125 0.0507812 C 0.414062 0.0507812 0.304688 0 0.210938 -0.09375 C 0.113281 -0.191406 0.0664062 -0.328125 0.0664062 -0.503906 C 0.0664062 -0.808594 0.203125 -1.125 0.476562 -1.453125 C 0.757812 -1.796875 1.046875 -1.96875 1.347656 -1.96875 Z "/>
</g>
<g id="glyph-0-10">
<path d="M 0.453125 -0.503906 C 0.453125 -0.414062 0.472656 -0.339844 0.511719 -0.273438 C 0.550781 -0.207031 0.621094 -0.171875 0.71875 -0.171875 C 0.925781 -0.171875 1.125 -0.339844 1.316406 -0.671875 C 1.496094 -0.984375 1.585938 -1.28125 1.585938 -1.558594 C 1.585938 -1.648438 1.570312 -1.722656 1.539062 -1.78125 C 1.511719 -1.839844 1.453125 -1.867188 1.363281 -1.867188 C 1.144531 -1.867188 0.933594 -1.6875 0.726562 -1.332031 C 0.542969 -1.015625 0.453125 -0.738281 0.453125 -0.503906 Z M 1.339844 -1.96875 C 1.453125 -1.96875 1.535156 -1.941406 1.585938 -1.886719 C 1.613281 -1.855469 1.632812 -1.800781 1.648438 -1.722656 L 1.898438 -2.613281 C 1.90625 -2.636719 1.910156 -2.660156 1.910156 -2.679688 C 1.914062 -2.699219 1.914062 -2.714844 1.914062 -2.730469 C 1.914062 -2.785156 1.902344 -2.820312 1.882812 -2.835938 C 1.863281 -2.851562 1.832031 -2.859375 1.792969 -2.859375 C 1.769531 -2.859375 1.746094 -2.855469 1.722656 -2.855469 C 1.703125 -2.855469 1.675781 -2.851562 1.640625 -2.847656 L 1.640625 -2.921875 C 1.804688 -2.941406 2.03125 -2.980469 2.320312 -3.035156 L 2.339844 -3.011719 L 2.335938 -2.988281 L 1.917969 -1.429688 L 1.632812 -0.394531 C 1.628906 -0.371094 1.625 -0.351562 1.621094 -0.332031 C 1.617188 -0.3125 1.613281 -0.292969 1.613281 -0.277344 C 1.613281 -0.238281 1.625 -0.214844 1.644531 -0.203125 C 1.664062 -0.191406 1.679688 -0.183594 1.695312 -0.183594 C 1.738281 -0.183594 1.796875 -0.222656 1.871094 -0.296875 C 1.917969 -0.339844 1.980469 -0.410156 2.058594 -0.503906 L 2.105469 -0.457031 L 2.078125 -0.410156 C 2.023438 -0.332031 1.953125 -0.25 1.871094 -0.167969 C 1.722656 -0.0195312 1.585938 0.0507812 1.46875 0.0507812 C 1.429688 0.0507812 1.394531 0.0429688 1.363281 0.0273438 C 1.304688 -0.0078125 1.273438 -0.0703125 1.273438 -0.160156 C 1.273438 -0.191406 1.277344 -0.238281 1.285156 -0.304688 C 1.296875 -0.371094 1.308594 -0.445312 1.324219 -0.523438 C 1.214844 -0.355469 1.09375 -0.21875 0.964844 -0.109375 C 0.832031 -0.00390625 0.691406 0.0507812 0.535156 0.0507812 C 0.410156 0.0507812 0.300781 0.00390625 0.207031 -0.0859375 C 0.113281 -0.175781 0.0664062 -0.3125 0.0664062 -0.5 C 0.0664062 -0.816406 0.210938 -1.136719 0.5 -1.472656 C 0.789062 -1.804688 1.066406 -1.96875 1.339844 -1.96875 Z "/>
</g>
<g id="glyph-0-11">
<path d="M 0.0625 0 L 0.753906 -2.632812 C 0.757812 -2.644531 0.761719 -2.65625 0.761719 -2.671875 C 0.765625 -2.683594 0.765625 -2.695312 0.765625 -2.707031 C 0.765625 -2.773438 0.746094 -2.808594 0.710938 -2.824219 C 0.675781 -2.835938 0.59375 -2.839844 0.472656 -2.839844 L 0.472656 -2.910156 C 0.554688 -2.921875 0.636719 -2.929688 0.710938 -2.941406 C 0.789062 -2.953125 0.847656 -2.960938 0.890625 -2.96875 C 0.902344 -2.972656 0.953125 -2.980469 1.039062 -3 C 1.125 -3.019531 1.175781 -3.03125 1.183594 -3.03125 L 1.1875 -3.007812 L 0.640625 -0.972656 C 0.96875 -1.230469 1.191406 -1.410156 1.304688 -1.511719 C 1.421875 -1.613281 1.480469 -1.691406 1.480469 -1.746094 C 1.480469 -1.78125 1.464844 -1.800781 1.433594 -1.808594 C 1.402344 -1.816406 1.335938 -1.824219 1.234375 -1.828125 L 1.234375 -1.902344 L 2.046875 -1.902344 L 2.046875 -1.828125 C 1.941406 -1.824219 1.839844 -1.789062 1.75 -1.726562 C 1.660156 -1.660156 1.425781 -1.46875 1.046875 -1.144531 C 1.246094 -0.6875 1.367188 -0.410156 1.417969 -0.316406 C 1.464844 -0.222656 1.515625 -0.179688 1.566406 -0.179688 C 1.609375 -0.179688 1.65625 -0.207031 1.703125 -0.269531 C 1.734375 -0.308594 1.78125 -0.378906 1.839844 -0.480469 L 1.90625 -0.4375 C 1.816406 -0.265625 1.734375 -0.144531 1.660156 -0.0664062 C 1.589844 0.0117188 1.507812 0.0507812 1.414062 0.0507812 C 1.351562 0.0507812 1.296875 0.0273438 1.246094 -0.0195312 C 1.199219 -0.0664062 1.132812 -0.175781 1.050781 -0.347656 C 1.015625 -0.414062 0.976562 -0.496094 0.933594 -0.597656 C 0.890625 -0.699219 0.84375 -0.8125 0.796875 -0.941406 L 0.59375 -0.792969 L 0.394531 0 Z "/>
</g>
<g id="glyph-0-12">
<path d="M -0.339844 0.84375 C -0.253906 0.84375 -0.1875 0.828125 -0.144531 0.796875 C -0.101562 0.761719 -0.0664062 0.707031 -0.046875 0.628906 L 0.503906 -1.488281 C 0.519531 -1.539062 0.527344 -1.578125 0.53125 -1.597656 C 0.535156 -1.621094 0.535156 -1.640625 0.535156 -1.652344 C 0.535156 -1.699219 0.519531 -1.738281 0.484375 -1.761719 C 0.449219 -1.785156 0.394531 -1.792969 0.328125 -1.792969 C 0.3125 -1.792969 0.300781 -1.792969 0.285156 -1.792969 C 0.273438 -1.792969 0.257812 -1.792969 0.246094 -1.789062 L 0.242188 -1.863281 L 0.929688 -1.964844 C 0.9375 -1.964844 0.945312 -1.960938 0.949219 -1.949219 C 0.945312 -1.929688 0.941406 -1.914062 0.941406 -1.902344 L 0.824219 -1.480469 C 0.921875 -1.609375 1.011719 -1.710938 1.09375 -1.777344 C 1.242188 -1.902344 1.398438 -1.964844 1.558594 -1.964844 C 1.722656 -1.964844 1.851562 -1.914062 1.941406 -1.820312 C 2.035156 -1.722656 2.082031 -1.578125 2.082031 -1.378906 C 2.082031 -1.039062 1.9375 -0.714844 1.652344 -0.40625 C 1.367188 -0.101562 1.070312 0.0507812 0.765625 0.0507812 C 0.703125 0.0507812 0.652344 0.046875 0.609375 0.0351562 C 0.566406 0.0234375 0.515625 0.00390625 0.457031 -0.0234375 L 0.425781 0.105469 C 0.390625 0.253906 0.367188 0.359375 0.351562 0.421875 C 0.3125 0.589844 0.296875 0.683594 0.296875 0.707031 C 0.296875 0.765625 0.3125 0.800781 0.351562 0.816406 C 0.390625 0.832031 0.464844 0.84375 0.574219 0.851562 L 0.574219 0.914062 L -0.339844 0.914062 Z M 1.683594 -1.386719 C 1.683594 -1.480469 1.671875 -1.554688 1.648438 -1.609375 C 1.605469 -1.714844 1.519531 -1.769531 1.398438 -1.769531 C 1.292969 -1.769531 1.175781 -1.71875 1.050781 -1.617188 C 0.925781 -1.519531 0.828125 -1.355469 0.757812 -1.132812 C 0.699219 -0.949219 0.644531 -0.761719 0.59375 -0.5625 C 0.542969 -0.363281 0.519531 -0.246094 0.519531 -0.210938 C 0.519531 -0.152344 0.542969 -0.113281 0.585938 -0.0859375 C 0.632812 -0.0585938 0.6875 -0.046875 0.75 -0.046875 C 1.003906 -0.046875 1.230469 -0.207031 1.421875 -0.53125 C 1.597656 -0.816406 1.683594 -1.101562 1.683594 -1.386719 Z "/>
</g>
<g id="glyph-0-13">
<path d="M 0.160156 -0.648438 L 0.230469 -0.648438 C 0.261719 -0.472656 0.300781 -0.34375 0.34375 -0.261719 C 0.421875 -0.113281 0.542969 -0.0390625 0.699219 -0.0390625 C 0.789062 -0.0390625 0.859375 -0.0703125 0.921875 -0.132812 C 0.980469 -0.195312 1.011719 -0.277344 1.011719 -0.378906 C 1.011719 -0.441406 1.003906 -0.496094 0.988281 -0.535156 C 0.972656 -0.578125 0.953125 -0.613281 0.929688 -0.648438 L 0.75 -0.914062 C 0.640625 -1.074219 0.574219 -1.183594 0.546875 -1.238281 C 0.503906 -1.320312 0.484375 -1.402344 0.484375 -1.488281 C 0.484375 -1.613281 0.527344 -1.722656 0.621094 -1.820312 C 0.710938 -1.917969 0.839844 -1.964844 1.003906 -1.964844 C 1.074219 -1.964844 1.15625 -1.949219 1.246094 -1.921875 C 1.339844 -1.894531 1.402344 -1.882812 1.433594 -1.882812 C 1.46875 -1.882812 1.496094 -1.890625 1.515625 -1.90625 C 1.53125 -1.921875 1.546875 -1.9375 1.5625 -1.964844 L 1.625 -1.964844 L 1.535156 -1.347656 L 1.464844 -1.347656 C 1.445312 -1.488281 1.417969 -1.59375 1.378906 -1.664062 C 1.308594 -1.796875 1.199219 -1.863281 1.050781 -1.863281 C 0.988281 -1.863281 0.929688 -1.84375 0.878906 -1.800781 C 0.828125 -1.761719 0.804688 -1.703125 0.804688 -1.628906 C 0.804688 -1.570312 0.816406 -1.515625 0.839844 -1.472656 C 0.863281 -1.425781 0.914062 -1.347656 0.992188 -1.234375 L 1.144531 -1.011719 C 1.226562 -0.898438 1.28125 -0.804688 1.316406 -0.730469 C 1.347656 -0.660156 1.363281 -0.582031 1.363281 -0.496094 C 1.363281 -0.339844 1.296875 -0.210938 1.164062 -0.101562 C 1.03125 0.00390625 0.875 0.0585938 0.691406 0.0585938 C 0.632812 0.0585938 0.546875 0.046875 0.4375 0.0234375 C 0.328125 -0.00390625 0.261719 -0.015625 0.246094 -0.015625 C 0.214844 -0.015625 0.195312 -0.0078125 0.179688 0.00390625 C 0.167969 0.015625 0.15625 0.0351562 0.144531 0.0625 L 0.0703125 0.0625 Z "/>
</g>
<g id="glyph-0-14">
<path d="M 0.75 -2.601562 C 0.757812 -2.632812 0.765625 -2.664062 0.769531 -2.6875 C 0.773438 -2.714844 0.773438 -2.734375 0.773438 -2.75 C 0.773438 -2.769531 0.769531 -2.789062 0.761719 -2.808594 C 0.75 -2.824219 0.730469 -2.839844 0.695312 -2.847656 C 0.683594 -2.851562 0.667969 -2.855469 0.644531 -2.855469 C 0.621094 -2.855469 0.566406 -2.859375 0.488281 -2.863281 L 0.488281 -2.941406 C 0.535156 -2.949219 0.585938 -2.953125 0.640625 -2.960938 C 0.695312 -2.964844 0.765625 -2.976562 0.859375 -2.992188 C 0.871094 -2.992188 0.914062 -3 0.992188 -3.019531 C 1.070312 -3.035156 1.125 -3.042969 1.15625 -3.042969 C 1.164062 -3.042969 1.171875 -3.042969 1.175781 -3.035156 C 1.183594 -3.03125 1.1875 -3.019531 1.1875 -3.011719 L 1.183594 -2.980469 L 0.75 -1.339844 C 0.878906 -1.527344 0.992188 -1.660156 1.082031 -1.746094 C 1.242188 -1.890625 1.40625 -1.964844 1.574219 -1.964844 C 1.734375 -1.964844 1.863281 -1.910156 1.957031 -1.804688 C 2.054688 -1.699219 2.101562 -1.570312 2.101562 -1.417969 C 2.101562 -1.058594 1.945312 -0.71875 1.632812 -0.40625 C 1.328125 -0.101562 1.011719 0.0507812 0.683594 0.0507812 C 0.535156 0.0507812 0.398438 0.0195312 0.273438 -0.046875 C 0.148438 -0.113281 0.09375 -0.164062 0.101562 -0.203125 Z M 0.707031 -0.0507812 C 0.960938 -0.0507812 1.199219 -0.214844 1.421875 -0.550781 C 1.625 -0.847656 1.726562 -1.121094 1.726562 -1.371094 C 1.726562 -1.484375 1.695312 -1.574219 1.636719 -1.640625 C 1.578125 -1.707031 1.503906 -1.742188 1.414062 -1.742188 C 1.183594 -1.742188 0.960938 -1.539062 0.753906 -1.125 C 0.570312 -0.769531 0.480469 -0.472656 0.480469 -0.238281 C 0.480469 -0.179688 0.496094 -0.136719 0.535156 -0.101562 C 0.570312 -0.0664062 0.628906 -0.0507812 0.707031 -0.0507812 Z "/>
</g>
<g id="glyph-0-15">
<path d="M 0.507812 -1.566406 C 0.511719 -1.582031 0.511719 -1.59375 0.515625 -1.605469 C 0.519531 -1.617188 0.519531 -1.632812 0.519531 -1.644531 C 0.519531 -1.707031 0.5 -1.746094 0.464844 -1.757812 C 0.425781 -1.773438 0.355469 -1.78125 0.257812 -1.78125 L 0.257812 -1.839844 L 0.574219 -1.902344 L 0.921875 -1.96875 C 0.929688 -1.96875 0.933594 -1.96875 0.941406 -1.960938 C 0.945312 -1.953125 0.949219 -1.945312 0.945312 -1.9375 L 0.941406 -1.90625 L 0.554688 -0.433594 C 0.546875 -0.394531 0.539062 -0.367188 0.535156 -0.347656 C 0.53125 -0.328125 0.527344 -0.3125 0.527344 -0.304688 C 0.527344 -0.269531 0.535156 -0.246094 0.554688 -0.226562 C 0.574219 -0.207031 0.597656 -0.199219 0.628906 -0.199219 C 0.714844 -0.199219 0.820312 -0.273438 0.949219 -0.425781 C 1.078125 -0.578125 1.191406 -0.734375 1.292969 -0.898438 C 1.382812 -1.042969 1.464844 -1.207031 1.539062 -1.386719 C 1.585938 -1.5 1.652344 -1.675781 1.738281 -1.917969 L 2.066406 -1.917969 L 1.65625 -0.378906 C 1.648438 -0.351562 1.640625 -0.324219 1.636719 -0.300781 C 1.628906 -0.273438 1.628906 -0.253906 1.628906 -0.238281 C 1.628906 -0.21875 1.632812 -0.203125 1.640625 -0.191406 C 1.648438 -0.175781 1.664062 -0.167969 1.6875 -0.167969 C 1.707031 -0.167969 1.730469 -0.175781 1.753906 -0.195312 C 1.777344 -0.210938 1.804688 -0.238281 1.839844 -0.269531 C 1.855469 -0.285156 1.886719 -0.320312 1.925781 -0.375 C 1.953125 -0.40625 1.992188 -0.453125 2.046875 -0.519531 L 2.105469 -0.476562 C 2.039062 -0.367188 1.972656 -0.273438 1.898438 -0.191406 C 1.753906 -0.03125 1.621094 0.046875 1.5 0.046875 C 1.4375 0.046875 1.382812 0.03125 1.34375 -0.00390625 C 1.304688 -0.0390625 1.28125 -0.09375 1.28125 -0.167969 C 1.28125 -0.203125 1.285156 -0.246094 1.292969 -0.289062 C 1.300781 -0.335938 1.3125 -0.386719 1.328125 -0.441406 C 1.355469 -0.542969 1.386719 -0.671875 1.429688 -0.824219 L 1.476562 -1.007812 L 1.460938 -1.007812 C 1.261719 -0.675781 1.105469 -0.441406 0.988281 -0.304688 C 0.789062 -0.0664062 0.605469 0.0507812 0.425781 0.0507812 C 0.378906 0.0507812 0.335938 0.0390625 0.296875 0.0195312 C 0.222656 -0.0195312 0.183594 -0.09375 0.183594 -0.199219 C 0.183594 -0.226562 0.1875 -0.253906 0.1875 -0.269531 C 0.191406 -0.289062 0.195312 -0.316406 0.203125 -0.347656 Z "/>
</g>
<g id="glyph-0-16">
<path d="M 0.953125 -2.441406 C 0.894531 -2.441406 0.84375 -2.464844 0.804688 -2.511719 C 0.761719 -2.558594 0.738281 -2.613281 0.738281 -2.679688 C 0.738281 -2.746094 0.761719 -2.800781 0.804688 -2.847656 C 0.84375 -2.894531 0.894531 -2.917969 0.953125 -2.917969 C 1.011719 -2.917969 1.066406 -2.894531 1.109375 -2.847656 C 1.152344 -2.800781 1.171875 -2.746094 1.171875 -2.679688 C 1.171875 -2.613281 1.152344 -2.554688 1.109375 -2.507812 C 1.066406 -2.464844 1.015625 -2.441406 0.953125 -2.441406 Z M 1.007812 -1.964844 C 1.015625 -1.960938 1.019531 -1.957031 1.019531 -1.949219 L 0.578125 -0.398438 C 0.558594 -0.316406 0.550781 -0.269531 0.550781 -0.25 C 0.550781 -0.230469 0.554688 -0.210938 0.5625 -0.195312 C 0.570312 -0.179688 0.585938 -0.167969 0.617188 -0.167969 C 0.664062 -0.167969 0.730469 -0.210938 0.8125 -0.296875 C 0.859375 -0.347656 0.917969 -0.421875 0.988281 -0.515625 L 1.042969 -0.464844 L 1.023438 -0.4375 C 0.914062 -0.285156 0.824219 -0.175781 0.753906 -0.109375 C 0.640625 -0.00390625 0.53125 0.046875 0.425781 0.046875 C 0.363281 0.046875 0.3125 0.0234375 0.273438 -0.03125 C 0.230469 -0.0820312 0.210938 -0.144531 0.210938 -0.214844 C 0.210938 -0.257812 0.214844 -0.292969 0.21875 -0.324219 C 0.226562 -0.355469 0.234375 -0.402344 0.25 -0.460938 L 0.554688 -1.578125 C 0.558594 -1.59375 0.5625 -1.609375 0.566406 -1.625 C 0.570312 -1.640625 0.570312 -1.65625 0.570312 -1.667969 C 0.570312 -1.71875 0.550781 -1.753906 0.511719 -1.765625 C 0.472656 -1.777344 0.398438 -1.785156 0.285156 -1.785156 L 0.285156 -1.855469 C 0.40625 -1.871094 0.492188 -1.882812 0.546875 -1.890625 C 0.597656 -1.898438 0.652344 -1.90625 0.707031 -1.914062 C 0.773438 -1.925781 0.839844 -1.9375 0.902344 -1.953125 C 0.964844 -1.96875 1 -1.972656 1.007812 -1.964844 Z "/>
</g>
<g id="glyph-0-17">
<path d="M 0.769531 -1.109375 C 0.769531 -1.019531 0.785156 -0.949219 0.8125 -0.894531 C 0.859375 -0.808594 0.941406 -0.765625 1.0625 -0.765625 C 1.191406 -0.765625 1.308594 -0.847656 1.410156 -1.011719 C 1.511719 -1.179688 1.5625 -1.359375 1.5625 -1.558594 C 1.5625 -1.65625 1.542969 -1.730469 1.5 -1.785156 C 1.457031 -1.839844 1.394531 -1.867188 1.3125 -1.867188 C 1.148438 -1.867188 1.019531 -1.78125 0.917969 -1.609375 C 0.820312 -1.4375 0.769531 -1.269531 0.769531 -1.109375 Z M 0.847656 0.824219 C 1.019531 0.824219 1.160156 0.785156 1.273438 0.699219 C 1.386719 0.617188 1.445312 0.519531 1.445312 0.40625 C 1.445312 0.320312 1.414062 0.246094 1.355469 0.1875 C 1.324219 0.15625 1.273438 0.121094 1.203125 0.0859375 C 1.144531 0.0546875 1.042969 0.015625 0.902344 -0.0390625 C 0.761719 -0.09375 0.679688 -0.121094 0.65625 -0.121094 C 0.621094 -0.121094 0.546875 -0.0703125 0.4375 0.0273438 C 0.328125 0.128906 0.277344 0.242188 0.277344 0.371094 C 0.277344 0.5625 0.359375 0.695312 0.523438 0.769531 C 0.613281 0.804688 0.71875 0.824219 0.847656 0.824219 Z M 0.0351562 0.425781 C 0.0351562 0.320312 0.078125 0.214844 0.160156 0.117188 C 0.242188 0.0195312 0.375 -0.078125 0.554688 -0.171875 C 0.519531 -0.195312 0.488281 -0.222656 0.464844 -0.246094 C 0.441406 -0.273438 0.433594 -0.304688 0.433594 -0.347656 C 0.433594 -0.40625 0.472656 -0.472656 0.554688 -0.550781 C 0.601562 -0.59375 0.675781 -0.652344 0.78125 -0.722656 C 0.6875 -0.757812 0.609375 -0.804688 0.542969 -0.871094 C 0.460938 -0.957031 0.421875 -1.066406 0.421875 -1.203125 C 0.421875 -1.421875 0.507812 -1.601562 0.675781 -1.746094 C 0.847656 -1.890625 1.058594 -1.964844 1.3125 -1.964844 C 1.441406 -1.964844 1.554688 -1.941406 1.644531 -1.902344 C 1.734375 -1.859375 1.789062 -1.828125 1.804688 -1.800781 L 2.097656 -1.800781 L 2.097656 -1.625 L 1.878906 -1.625 C 1.886719 -1.59375 1.890625 -1.566406 1.898438 -1.539062 C 1.902344 -1.511719 1.902344 -1.476562 1.902344 -1.429688 C 1.902344 -1.195312 1.8125 -1.007812 1.628906 -0.875 C 1.449219 -0.738281 1.253906 -0.671875 1.042969 -0.671875 C 1.023438 -0.671875 1 -0.671875 0.984375 -0.675781 C 0.964844 -0.679688 0.941406 -0.683594 0.914062 -0.6875 C 0.890625 -0.6875 0.863281 -0.667969 0.824219 -0.625 C 0.785156 -0.582031 0.765625 -0.546875 0.765625 -0.511719 C 0.765625 -0.460938 0.925781 -0.378906 1.242188 -0.261719 C 1.558594 -0.140625 1.71875 0.0351562 1.71875 0.265625 C 1.71875 0.441406 1.640625 0.59375 1.480469 0.722656 C 1.320312 0.855469 1.082031 0.921875 0.757812 0.921875 C 0.535156 0.921875 0.359375 0.871094 0.230469 0.777344 C 0.101562 0.679688 0.0351562 0.566406 0.0351562 0.425781 Z "/>
</g>
<g id="glyph-0-18">
<path d="M 1.058594 -1.464844 C 0.988281 -1.464844 0.929688 -1.488281 0.882812 -1.539062 C 0.835938 -1.585938 0.8125 -1.644531 0.8125 -1.710938 C 0.8125 -1.78125 0.835938 -1.839844 0.882812 -1.886719 C 0.933594 -1.933594 0.992188 -1.960938 1.058594 -1.960938 C 1.125 -1.960938 1.183594 -1.933594 1.234375 -1.886719 C 1.28125 -1.839844 1.304688 -1.78125 1.304688 -1.710938 C 1.304688 -1.644531 1.28125 -1.585938 1.234375 -1.539062 C 1.1875 -1.488281 1.128906 -1.464844 1.058594 -1.464844 Z M 0.617188 0.0507812 C 0.546875 0.0507812 0.488281 0.0273438 0.441406 -0.0195312 C 0.394531 -0.0703125 0.367188 -0.128906 0.367188 -0.195312 C 0.367188 -0.261719 0.394531 -0.320312 0.441406 -0.367188 C 0.488281 -0.417969 0.546875 -0.441406 0.617188 -0.441406 C 0.683594 -0.441406 0.742188 -0.417969 0.789062 -0.367188 C 0.839844 -0.320312 0.863281 -0.261719 0.863281 -0.195312 C 0.863281 -0.128906 0.839844 -0.0703125 0.792969 -0.0195312 C 0.746094 0.0273438 0.6875 0.0507812 0.617188 0.0507812 Z "/>
</g>
<g id="glyph-0-19">
<path d="M 1.296875 -1.613281 C 1.527344 -1.613281 1.703125 -1.644531 1.832031 -1.707031 C 2.054688 -1.816406 2.164062 -2.019531 2.164062 -2.3125 C 2.164062 -2.476562 2.117188 -2.59375 2.023438 -2.664062 C 1.929688 -2.734375 1.808594 -2.765625 1.65625 -2.765625 C 1.558594 -2.765625 1.492188 -2.757812 1.460938 -2.738281 C 1.425781 -2.722656 1.402344 -2.691406 1.390625 -2.644531 L 1.101562 -1.613281 Z M 1.066406 -0.140625 C 1.359375 -0.140625 1.570312 -0.21875 1.707031 -0.371094 C 1.84375 -0.523438 1.910156 -0.707031 1.910156 -0.925781 C 1.910156 -1.164062 1.832031 -1.320312 1.671875 -1.394531 C 1.570312 -1.441406 1.367188 -1.464844 1.058594 -1.46875 L 0.78125 -0.460938 C 0.773438 -0.4375 0.769531 -0.414062 0.765625 -0.390625 C 0.761719 -0.367188 0.757812 -0.34375 0.757812 -0.324219 C 0.757812 -0.242188 0.792969 -0.191406 0.867188 -0.164062 C 0.910156 -0.148438 0.976562 -0.140625 1.066406 -0.140625 Z M -0.0429688 -0.0703125 C 0.0625 -0.078125 0.132812 -0.0976562 0.171875 -0.128906 C 0.234375 -0.171875 0.285156 -0.261719 0.324219 -0.398438 L 0.867188 -2.367188 C 0.878906 -2.414062 0.890625 -2.453125 0.898438 -2.480469 C 0.914062 -2.546875 0.921875 -2.597656 0.921875 -2.628906 C 0.921875 -2.703125 0.894531 -2.753906 0.847656 -2.78125 C 0.800781 -2.808594 0.707031 -2.824219 0.574219 -2.828125 L 0.574219 -2.898438 L 1.722656 -2.898438 C 1.917969 -2.898438 2.089844 -2.875 2.238281 -2.824219 C 2.488281 -2.71875 2.613281 -2.527344 2.613281 -2.253906 C 2.613281 -2.027344 2.511719 -1.851562 2.308594 -1.726562 C 2.199219 -1.65625 2.042969 -1.601562 1.84375 -1.558594 C 1.996094 -1.5 2.113281 -1.4375 2.191406 -1.367188 C 2.328125 -1.242188 2.394531 -1.070312 2.394531 -0.855469 C 2.394531 -0.613281 2.289062 -0.410156 2.074219 -0.246094 C 1.859375 -0.0820312 1.5625 0 1.1875 0 L -0.0429688 0 Z "/>
</g>
<g id="glyph-0-20">
<path d="M 0.0078125 -1.078125 L 2.242188 -1.078125 L 2.199219 -0.871094 L -0.03125 -0.871094 Z "/>
</g>
<g id="glyph-0-21">
<path d="M 0.914062 -0.0859375 C 1.136719 -0.0859375 1.316406 -0.21875 1.449219 -0.488281 C 1.585938 -0.757812 1.652344 -1.011719 1.652344 -1.257812 C 1.652344 -1.425781 1.609375 -1.5625 1.519531 -1.667969 C 1.429688 -1.773438 1.304688 -1.824219 1.136719 -1.824219 C 0.878906 -1.824219 0.691406 -1.652344 0.574219 -1.304688 C 0.503906 -1.097656 0.472656 -0.890625 0.472656 -0.683594 C 0.472656 -0.546875 0.488281 -0.433594 0.527344 -0.34375 C 0.597656 -0.171875 0.726562 -0.0859375 0.914062 -0.0859375 Z M 2.3125 -2.976562 C 2.152344 -2.945312 2.011719 -2.902344 1.882812 -2.847656 C 1.753906 -2.789062 1.628906 -2.714844 1.507812 -2.625 C 1.375 -2.519531 1.246094 -2.394531 1.125 -2.246094 C 1.003906 -2.097656 0.921875 -1.984375 0.882812 -1.902344 L 0.898438 -1.890625 C 1 -1.929688 1.074219 -1.957031 1.117188 -1.96875 C 1.164062 -1.980469 1.226562 -1.984375 1.304688 -1.984375 C 1.488281 -1.984375 1.65625 -1.914062 1.8125 -1.769531 C 1.96875 -1.628906 2.046875 -1.429688 2.046875 -1.171875 C 2.046875 -0.898438 1.957031 -0.640625 1.769531 -0.398438 C 1.550781 -0.113281 1.269531 0.03125 0.929688 0.03125 C 0.6875 0.03125 0.492188 -0.0546875 0.347656 -0.226562 C 0.203125 -0.398438 0.132812 -0.632812 0.132812 -0.941406 C 0.132812 -1.382812 0.296875 -1.800781 0.628906 -2.203125 C 1.039062 -2.703125 1.597656 -2.984375 2.308594 -3.050781 Z "/>
</g>
<g id="glyph-0-22">
<path d="M 0.660156 0.0429688 L 0.347656 0.0429688 L 1.980469 -2.621094 L 1.976562 -2.632812 L 0.988281 -2.632812 C 0.847656 -2.632812 0.738281 -2.609375 0.667969 -2.566406 C 0.597656 -2.523438 0.507812 -2.4375 0.394531 -2.3125 L 0.335938 -2.355469 L 0.695312 -2.960938 L 2.359375 -2.960938 L 2.386719 -2.917969 Z "/>
</g>
</g>
<image id="source-18" x="0" y="0" width="0" height="0"/>
<mask id="mask-0">
<use xlink:href="#source-18"/>
</mask>
</defs>
<g fill="rgb(26.666667%, 26.666667%, 26.666667%)" fill-opacity="1">
<use xlink:href="#glyph-0-0" x="30" y="23.333008"/>
<use xlink:href="#glyph-0-1" x="32" y="23.333008"/>
<use xlink:href="#glyph-0-2" x="34" y="23.333008"/>
<use xlink:href="#glyph-0-3" x="36" y="23.333008"/>
<use xlink:href="#glyph-0-4" x="37" y="23.333008"/>
<use xlink:href="#glyph-0-5" x="39" y="23.333008"/>
<use xlink:href="#glyph-0-6" x="41" y="23.333008"/>
<use xlink:href="#glyph-0-7" x="43" y="23.333008"/>
<use xlink:href="#glyph-0-8" x="44" y="23.333008"/>
<use xlink:href="#glyph-0-9" x="46" y="23.333008"/>
<use xlink:href="#glyph-0-4" x="48" y="23.333008"/>
<use xlink:href="#glyph-0-7" x="50" y="23.333008"/>
<use xlink:href="#glyph-0-2" x="51" y="23.333008"/>
<use xlink:href="#glyph-0-10" x="53" y="23.333008"/>
<use xlink:href="#glyph-0-3" x="55" y="23.333008"/>
<use xlink:href="#glyph-0-6" x="56" y="23.333008"/>
<use xlink:href="#glyph-0-5" x="58" y="23.333008"/>
<use xlink:href="#glyph-0-10" x="60" y="23.333008"/>
<use xlink:href="#glyph-0-2" x="62" y="23.333008"/>
<use xlink:href="#glyph-0-3" x="64" y="23.333008"/>
<use xlink:href="#glyph-0-11" x="65" y="23.333008"/>
<use xlink:href="#glyph-0-2" x="67" y="23.333008"/>
<use xlink:href="#glyph-0-2" x="69" y="23.333008"/>
<use xlink:href="#glyph-0-12" x="71" y="23.333008"/>
<use xlink:href="#glyph-0-13" x="73" y="23.333008"/>
<use xlink:href="#glyph-0-3" x="75" y="23.333008"/>
<use xlink:href="#glyph-0-14" x="76" y="23.333008"/>
<use xlink:href="#glyph-0-5" x="78" y="23.333008"/>
<use xlink:href="#glyph-0-7" x="80" y="23.333008"/>
<use xlink:href="#glyph-0-1" x="81" y="23.333008"/>
<use xlink:href="#glyph-0-3" x="83" y="23.333008"/>
<use xlink:href="#glyph-0-5" x="84" y="23.333008"/>
<use xlink:href="#glyph-0-15" x="86" y="23.333008"/>
<use xlink:href="#glyph-0-7" x="88" y="23.333008"/>
<use xlink:href="#glyph-0-13" x="89" y="23.333008"/>
<use xlink:href="#glyph-0-16" x="91" y="23.333008"/>
<use xlink:href="#glyph-0-10" x="92" y="23.333008"/>
<use xlink:href="#glyph-0-2" x="94" y="23.333008"/>
<use xlink:href="#glyph-0-3" x="96" y="23.333008"/>
<use xlink:href="#glyph-0-2" x="97" y="23.333008"/>
<use xlink:href="#glyph-0-10" x="99" y="23.333008"/>
<use xlink:href="#glyph-0-17" x="101" y="23.333008"/>
<use xlink:href="#glyph-0-2" x="103" y="23.333008"/>
<use xlink:href="#glyph-0-13" x="105" y="23.333008"/>
<use xlink:href="#glyph-0-18" x="107" y="23.333008"/>
<use xlink:href="#glyph-0-3" x="108" y="23.333008"/>
<use xlink:href="#glyph-0-19" x="109" y="23.333008"/>
<use xlink:href="#glyph-0-20" x="112" y="23.333008"/>
<use xlink:href="#glyph-0-21" x="114" y="23.333008"/>
<use xlink:href="#glyph-0-3" x="116" y="23.333008"/>
<use xlink:href="#glyph-0-9" x="117" y="23.333008"/>
<use xlink:href="#glyph-0-6" x="119" y="23.333008"/>
<use xlink:href="#glyph-0-10" x="121" y="23.333008"/>
<use xlink:href="#glyph-0-3" x="123" y="23.333008"/>
<use xlink:href="#glyph-0-19" x="124" y="23.333008"/>
<use xlink:href="#glyph-0-20" x="127" y="23.333008"/>
<use xlink:href="#glyph-0-22" x="129" y="23.333008"/>
</g>
</svg>
