<?xml version="1.0" encoding="UTF-8"?>
<svg xmlns="http://www.w3.org/2000/svg" xmlns:xlink="http://www.w3.org/1999/xlink" width="854" height="480" viewBox="0 0 854 480">
<defs>
<g>
<g id="glyph-0-0">
<path d="M 1.636719 -2.347656 C 1.71875 -2.457031 1.773438 -2.542969 1.796875 -2.605469 C 1.839844 -2.703125 1.863281 -2.824219 1.863281 -2.96875 C 1.863281 -3.167969 1.828125 -3.332031 1.753906 -3.460938 C 1.679688 -3.589844 1.550781 -3.65625 1.367188 -3.65625 C 1.234375 -3.65625 1.128906 -3.613281 1.042969 -3.527344 C 0.960938 -3.441406 0.917969 -3.332031 0.917969 -3.199219 C 0.917969 -2.996094 1.023438 -2.800781 1.230469 -2.613281 C 1.351562 -2.507812 1.488281 -2.417969 1.636719 -2.347656 Z M 0.808594 -0.875 C 0.808594 -0.71875 0.832031 -0.578125 0.882812 -0.453125 C 0.96875 -0.21875 1.128906 -0.101562 1.355469 -0.101562 C 1.484375 -0.101562 1.59375 -0.152344 1.6875 -0.246094 C 1.785156 -0.34375 1.832031 -0.503906 1.832031 -0.730469 C 1.832031 -0.949219 1.757812 -1.136719 1.617188 -1.292969 C 1.527344 -1.390625 1.351562 -1.527344 1.089844 -1.695312 C 0.984375 -1.535156 0.917969 -1.410156 0.882812 -1.328125 C 0.832031 -1.199219 0.808594 -1.046875 0.808594 -0.875 Z M 0.140625 -0.859375 C 0.140625 -1.144531 0.242188 -1.367188 0.445312 -1.53125 C 0.554688 -1.625 0.714844 -1.707031 0.925781 -1.773438 L 0.925781 -1.824219 C 0.882812 -1.835938 0.796875 -1.894531 0.667969 -2 C 0.539062 -2.105469 0.445312 -2.203125 0.382812 -2.289062 C 0.308594 -2.390625 0.257812 -2.488281 0.234375 -2.574219 C 0.210938 -2.664062 0.199219 -2.753906 0.199219 -2.851562 C 0.199219 -3.121094 0.3125 -3.347656 0.546875 -3.539062 C 0.777344 -3.726562 1.078125 -3.820312 1.453125 -3.820312 C 1.800781 -3.820312 2.066406 -3.742188 2.253906 -3.585938 C 2.4375 -3.429688 2.53125 -3.242188 2.53125 -3.03125 C 2.53125 -2.8125 2.4375 -2.628906 2.246094 -2.480469 C 2.140625 -2.398438 1.996094 -2.328125 1.8125 -2.261719 L 1.8125 -2.222656 C 2.078125 -2.035156 2.257812 -1.878906 2.355469 -1.761719 C 2.519531 -1.558594 2.605469 -1.320312 2.605469 -1.050781 C 2.605469 -0.695312 2.480469 -0.417969 2.234375 -0.21875 C 1.988281 -0.0195312 1.675781 0.078125 1.292969 0.078125 C 1.007812 0.078125 0.746094 0 0.503906 -0.160156 C 0.261719 -0.316406 0.140625 -0.550781 0.140625 -0.859375 Z "/>
</g>
</g>
</defs>
<g fill="rgb(0%, 0%, 0%)" fill-opacity="1">
<use xlink:href="#glyph-0-0" x="30" y="24.166992"/>
</g>
</svg>
