<?xml version="1.0" encoding="UTF-8"?>
<svg xmlns="http://www.w3.org/2000/svg" xmlns:xlink="http://www.w3.org/1999/xlink" width="854" height="480" viewBox="0 0 854 480">
<defs>
<g>
<g id="glyph-0-0">
<path d="M 2.621094 -1.574219 L 1.984375 -3.117188 L 1.925781 -3.117188 L 1.324219 -1.574219 Z M 0.121094 -0.167969 C 0.28125 -0.179688 0.410156 -0.253906 0.507812 -0.386719 C 0.570312 -0.472656 0.660156 -0.660156 0.777344 -0.949219 L 2.257812 -4.597656 L 2.445312 -4.597656 L 3.933594 -1.09375 C 4.101562 -0.699219 4.222656 -0.449219 4.308594 -0.332031 C 4.390625 -0.21875 4.507812 -0.164062 4.660156 -0.167969 L 4.660156 0 L 2.5 0 L 2.5 -0.167969 C 2.71875 -0.175781 2.859375 -0.195312 2.929688 -0.226562 C 2.996094 -0.253906 3.03125 -0.324219 3.03125 -0.441406 C 3.03125 -0.492188 3.011719 -0.570312 2.980469 -0.675781 C 2.957031 -0.738281 2.925781 -0.816406 2.890625 -0.90625 L 2.722656 -1.308594 L 1.222656 -1.308594 C 1.125 -1.042969 1.0625 -0.871094 1.035156 -0.792969 C 0.976562 -0.621094 0.949219 -0.496094 0.949219 -0.417969 C 0.949219 -0.320312 1.011719 -0.25 1.140625 -0.207031 C 1.214844 -0.183594 1.328125 -0.171875 1.480469 -0.167969 L 1.480469 0 L 0.121094 0 Z "/>
</g>
<g id="glyph-0-1">
<path d="M 1.363281 -3.070312 L 1.363281 -0.808594 C 1.363281 -0.671875 1.378906 -0.574219 1.414062 -0.511719 C 1.46875 -0.402344 1.582031 -0.34375 1.75 -0.34375 C 1.855469 -0.34375 1.957031 -0.378906 2.0625 -0.445312 C 2.121094 -0.484375 2.191406 -0.542969 2.28125 -0.632812 L 2.28125 -2.523438 C 2.28125 -2.660156 2.253906 -2.757812 2.199219 -2.8125 C 2.144531 -2.867188 2.03125 -2.902344 1.867188 -2.90625 L 1.867188 -3.070312 L 3.195312 -3.070312 L 3.195312 -0.671875 C 3.195312 -0.53125 3.21875 -0.4375 3.273438 -0.382812 C 3.324219 -0.328125 3.425781 -0.296875 3.578125 -0.285156 L 3.578125 -0.128906 C 3.164062 -0.0898438 2.90625 -0.0625 2.796875 -0.0429688 C 2.691406 -0.0234375 2.519531 0.0195312 2.28125 0.09375 L 2.28125 -0.34375 C 2.125 -0.207031 1.992188 -0.113281 1.886719 -0.0546875 C 1.707031 0.0429688 1.515625 0.09375 1.320312 0.09375 C 1.105469 0.09375 0.902344 0.0273438 0.71875 -0.109375 C 0.53125 -0.246094 0.441406 -0.492188 0.441406 -0.839844 L 0.441406 -2.523438 C 0.441406 -2.664062 0.417969 -2.757812 0.371094 -2.800781 C 0.324219 -2.84375 0.238281 -2.878906 0.109375 -2.90625 L 0.109375 -3.070312 Z "/>
</g>
<g id="glyph-0-2">
<path d="M 1.125 -2.074219 C 1.125 -1.816406 1.148438 -1.628906 1.191406 -1.503906 C 1.257812 -1.308594 1.382812 -1.210938 1.566406 -1.210938 C 1.734375 -1.210938 1.847656 -1.285156 1.910156 -1.429688 C 1.972656 -1.578125 2.003906 -1.792969 2.003906 -2.074219 C 2.003906 -2.375 1.972656 -2.589844 1.90625 -2.726562 C 1.839844 -2.863281 1.726562 -2.933594 1.566406 -2.933594 C 1.390625 -2.933594 1.273438 -2.859375 1.214844 -2.714844 C 1.15625 -2.566406 1.125 -2.355469 1.125 -2.074219 Z M 0.738281 0.726562 C 0.738281 0.863281 0.8125 0.96875 0.957031 1.046875 C 1.105469 1.125 1.316406 1.164062 1.59375 1.164062 C 1.84375 1.164062 2.046875 1.144531 2.207031 1.105469 C 2.507812 1.03125 2.660156 0.898438 2.660156 0.699219 C 2.660156 0.585938 2.617188 0.5 2.53125 0.441406 C 2.445312 0.382812 2.289062 0.355469 2.0625 0.355469 L 0.96875 0.355469 C 0.898438 0.410156 0.851562 0.460938 0.820312 0.5 C 0.765625 0.570312 0.738281 0.644531 0.738281 0.726562 Z M 0.152344 0.773438 C 0.152344 0.675781 0.191406 0.578125 0.273438 0.476562 C 0.351562 0.375 0.488281 0.308594 0.683594 0.28125 L 0.683594 0.234375 C 0.554688 0.183594 0.460938 0.132812 0.402344 0.0820312 C 0.296875 -0.0117188 0.246094 -0.136719 0.246094 -0.292969 C 0.246094 -0.480469 0.324219 -0.640625 0.488281 -0.773438 C 0.652344 -0.90625 0.8125 -0.996094 0.96875 -1.046875 L 0.96875 -1.09375 C 0.742188 -1.183594 0.5625 -1.316406 0.421875 -1.484375 C 0.285156 -1.652344 0.214844 -1.859375 0.214844 -2.101562 C 0.214844 -2.402344 0.335938 -2.652344 0.578125 -2.851562 C 0.820312 -3.050781 1.152344 -3.148438 1.566406 -3.148438 C 1.722656 -3.148438 1.867188 -3.132812 1.996094 -3.101562 C 2.125 -3.070312 2.226562 -3.039062 2.296875 -3.007812 L 3.175781 -3.007812 L 3.175781 -2.652344 L 2.636719 -2.652344 C 2.722656 -2.566406 2.789062 -2.46875 2.835938 -2.355469 C 2.882812 -2.242188 2.90625 -2.121094 2.90625 -1.988281 C 2.90625 -1.570312 2.707031 -1.285156 2.3125 -1.132812 C 2.101562 -1.050781 1.84375 -1.007812 1.535156 -1.007812 C 1.464844 -1.007812 1.421875 -1.011719 1.402344 -1.011719 C 1.382812 -1.015625 1.351562 -1.015625 1.308594 -1.015625 C 1.242188 -1.003906 1.175781 -0.96875 1.105469 -0.910156 C 1.03125 -0.851562 0.992188 -0.777344 0.992188 -0.695312 C 0.992188 -0.625 1.011719 -0.574219 1.046875 -0.539062 C 1.085938 -0.5 1.136719 -0.476562 1.203125 -0.46875 C 1.234375 -0.464844 1.304688 -0.460938 1.410156 -0.457031 C 1.515625 -0.453125 1.597656 -0.453125 1.65625 -0.453125 L 2.089844 -0.445312 C 2.335938 -0.441406 2.542969 -0.40625 2.707031 -0.339844 C 3.027344 -0.207031 3.1875 0.0234375 3.1875 0.363281 C 3.1875 0.796875 2.949219 1.09375 2.472656 1.257812 C 2.21875 1.339844 1.902344 1.382812 1.519531 1.382812 C 1.207031 1.382812 0.9375 1.351562 0.714844 1.292969 C 0.339844 1.191406 0.152344 1.015625 0.152344 0.773438 Z "/>
</g>
<g id="glyph-0-3">
<path d="M 0.109375 -0.160156 C 0.230469 -0.175781 0.3125 -0.199219 0.359375 -0.238281 C 0.433594 -0.296875 0.46875 -0.40625 0.46875 -0.5625 L 0.46875 -2.523438 C 0.46875 -2.660156 0.445312 -2.757812 0.394531 -2.804688 C 0.34375 -2.855469 0.25 -2.890625 0.109375 -2.90625 L 0.109375 -3.070312 L 1.371094 -3.070312 L 1.371094 -2.589844 C 1.480469 -2.734375 1.589844 -2.847656 1.691406 -2.929688 C 1.886719 -3.074219 2.101562 -3.148438 2.335938 -3.148438 C 2.605469 -3.148438 2.8125 -3.085938 2.960938 -2.960938 C 3.042969 -2.886719 3.121094 -2.769531 3.195312 -2.609375 L 3.238281 -2.609375 C 3.363281 -2.761719 3.484375 -2.878906 3.601562 -2.957031 C 3.78125 -3.085938 3.980469 -3.148438 4.195312 -3.148438 C 4.429688 -3.148438 4.636719 -3.074219 4.816406 -2.921875 C 4.996094 -2.773438 5.085938 -2.535156 5.085938 -2.214844 L 5.085938 -0.539062 C 5.085938 -0.382812 5.109375 -0.285156 5.160156 -0.242188 C 5.210938 -0.199219 5.296875 -0.171875 5.421875 -0.160156 L 5.421875 0 L 3.839844 0 L 3.839844 -0.160156 C 3.960938 -0.175781 4.046875 -0.207031 4.09375 -0.25 C 4.140625 -0.292969 4.167969 -0.386719 4.167969 -0.539062 L 4.167969 -2.152344 C 4.167969 -2.324219 4.140625 -2.460938 4.089844 -2.554688 C 4.039062 -2.652344 3.941406 -2.699219 3.800781 -2.699219 C 3.683594 -2.699219 3.5625 -2.644531 3.4375 -2.539062 C 3.308594 -2.433594 3.246094 -2.363281 3.246094 -2.320312 L 3.246094 -0.539062 C 3.246094 -0.390625 3.265625 -0.296875 3.3125 -0.257812 C 3.355469 -0.214844 3.433594 -0.183594 3.554688 -0.160156 L 3.554688 0 L 1.996094 0 L 1.996094 -0.160156 C 2.113281 -0.175781 2.195312 -0.203125 2.246094 -0.246094 C 2.296875 -0.289062 2.320312 -0.386719 2.320312 -0.539062 L 2.320312 -2.152344 C 2.320312 -2.320312 2.296875 -2.453125 2.25 -2.550781 C 2.203125 -2.648438 2.101562 -2.699219 1.953125 -2.699219 C 1.816406 -2.699219 1.691406 -2.644531 1.574219 -2.53125 C 1.457031 -2.417969 1.398438 -2.347656 1.398438 -2.320312 L 1.398438 -0.539062 C 1.398438 -0.390625 1.417969 -0.296875 1.457031 -0.257812 C 1.5 -0.214844 1.582031 -0.183594 1.703125 -0.160156 L 1.703125 0 L 0.109375 0 Z "/>
</g>
<g id="glyph-0-4">
<path d="M 0.148438 -1.53125 C 0.148438 -2.042969 0.285156 -2.441406 0.558594 -2.722656 C 0.832031 -3.007812 1.160156 -3.148438 1.542969 -3.148438 C 1.761719 -3.148438 1.96875 -3.089844 2.160156 -2.976562 C 2.355469 -2.859375 2.503906 -2.699219 2.609375 -2.496094 C 2.6875 -2.34375 2.738281 -2.144531 2.769531 -1.898438 C 2.785156 -1.78125 2.792969 -1.695312 2.792969 -1.632812 L 1.09375 -1.632812 C 1.109375 -1.367188 1.152344 -1.136719 1.222656 -0.941406 C 1.355469 -0.574219 1.582031 -0.390625 1.910156 -0.390625 C 2.066406 -0.390625 2.214844 -0.441406 2.355469 -0.539062 C 2.4375 -0.597656 2.542969 -0.695312 2.667969 -0.832031 L 2.824219 -0.738281 C 2.617188 -0.398438 2.378906 -0.164062 2.105469 -0.03125 C 1.929688 0.0507812 1.730469 0.09375 1.5 0.09375 C 1.171875 0.09375 0.867188 -0.0351562 0.578125 -0.292969 C 0.292969 -0.550781 0.148438 -0.964844 0.148438 -1.53125 Z M 1.972656 -1.882812 C 1.96875 -2.273438 1.9375 -2.550781 1.882812 -2.707031 C 1.824219 -2.863281 1.710938 -2.941406 1.542969 -2.941406 C 1.371094 -2.941406 1.25 -2.847656 1.1875 -2.667969 C 1.121094 -2.488281 1.085938 -2.226562 1.078125 -1.882812 Z "/>
</g>
<g id="glyph-0-5">
<path d="M 0.109375 -0.160156 C 0.230469 -0.175781 0.320312 -0.207031 0.375 -0.257812 C 0.433594 -0.308594 0.460938 -0.410156 0.460938 -0.5625 L 0.460938 -2.523438 C 0.460938 -2.65625 0.4375 -2.75 0.390625 -2.804688 C 0.34375 -2.855469 0.25 -2.890625 0.109375 -2.90625 L 0.109375 -3.070312 L 1.371094 -3.070312 L 1.371094 -2.589844 C 1.476562 -2.75 1.613281 -2.886719 1.777344 -2.988281 C 1.941406 -3.09375 2.121094 -3.148438 2.320312 -3.148438 C 2.605469 -3.148438 2.828125 -3.074219 2.988281 -2.925781 C 3.144531 -2.777344 3.222656 -2.519531 3.222656 -2.148438 L 3.222656 -0.539062 C 3.222656 -0.386719 3.25 -0.289062 3.300781 -0.246094 C 3.351562 -0.203125 3.433594 -0.175781 3.554688 -0.160156 L 3.554688 0 L 1.988281 0 L 1.988281 -0.160156 C 2.109375 -0.183594 2.191406 -0.214844 2.234375 -0.257812 C 2.277344 -0.296875 2.296875 -0.390625 2.296875 -0.539062 L 2.296875 -2.152344 C 2.296875 -2.304688 2.28125 -2.417969 2.253906 -2.492188 C 2.199219 -2.628906 2.097656 -2.699219 1.945312 -2.699219 C 1.828125 -2.699219 1.722656 -2.65625 1.625 -2.574219 C 1.527344 -2.488281 1.457031 -2.40625 1.402344 -2.320312 L 1.402344 -0.539062 C 1.402344 -0.390625 1.425781 -0.296875 1.46875 -0.257812 C 1.511719 -0.214844 1.59375 -0.183594 1.710938 -0.160156 L 1.710938 0 L 0.109375 0 Z "/>
</g>
<g id="glyph-0-6">
<path d="M 0.109375 -2.777344 L 0.109375 -2.960938 C 0.167969 -3.015625 0.238281 -3.082031 0.324219 -3.15625 C 0.441406 -3.261719 0.550781 -3.371094 0.652344 -3.484375 C 0.851562 -3.703125 1.035156 -3.941406 1.203125 -4.195312 L 1.371094 -4.195312 L 1.371094 -3.070312 L 2.003906 -3.070312 L 2.003906 -2.777344 L 1.371094 -2.777344 L 1.371094 -0.773438 C 1.371094 -0.679688 1.382812 -0.601562 1.414062 -0.539062 C 1.457031 -0.441406 1.527344 -0.390625 1.628906 -0.390625 C 1.714844 -0.390625 1.789062 -0.421875 1.847656 -0.484375 C 1.90625 -0.546875 1.964844 -0.628906 2.023438 -0.738281 L 2.179688 -0.660156 C 2.101562 -0.476562 2.007812 -0.328125 1.902344 -0.214844 C 1.710938 -0.0117188 1.476562 0.0898438 1.203125 0.0898438 C 1.046875 0.0898438 0.910156 0.0585938 0.792969 0 C 0.566406 -0.113281 0.453125 -0.316406 0.453125 -0.617188 L 0.453125 -2.777344 Z "/>
</g>
<g id="glyph-0-7">
<rect x="0" y="0" width="0" height="0" mask="url(#mask-0)"/>
</g>
<g id="glyph-0-8">
<path d="M 0.109375 -0.167969 C 0.296875 -0.171875 0.433594 -0.195312 0.515625 -0.238281 C 0.648438 -0.308594 0.714844 -0.441406 0.714844 -0.636719 L 0.714844 -3.863281 C 0.714844 -4.0625 0.652344 -4.195312 0.523438 -4.261719 C 0.445312 -4.300781 0.308594 -4.328125 0.109375 -4.335938 L 0.109375 -4.503906 L 2.4375 -4.503906 L 2.4375 -4.335938 C 2.230469 -4.328125 2.085938 -4.304688 2.007812 -4.265625 C 1.878906 -4.199219 1.8125 -4.0625 1.8125 -3.863281 L 1.8125 -0.636719 C 1.8125 -0.449219 1.867188 -0.328125 1.96875 -0.265625 C 2.074219 -0.203125 2.230469 -0.167969 2.4375 -0.167969 L 2.4375 0 L 0.109375 0 Z "/>
</g>
<g id="glyph-0-9">
<path d="M 2.578125 -4.589844 C 2.855469 -4.589844 3.136719 -4.539062 3.421875 -4.433594 C 3.707031 -4.332031 3.863281 -4.28125 3.898438 -4.28125 C 3.980469 -4.28125 4.050781 -4.3125 4.101562 -4.378906 C 4.152344 -4.445312 4.183594 -4.511719 4.195312 -4.582031 L 4.382812 -4.582031 L 4.382812 -3.023438 L 4.210938 -3.023438 C 4.050781 -3.363281 3.886719 -3.628906 3.722656 -3.824219 C 3.410156 -4.183594 3.054688 -4.367188 2.660156 -4.367188 C 2.210938 -4.367188 1.894531 -4.171875 1.707031 -3.789062 C 1.519531 -3.402344 1.425781 -2.886719 1.425781 -2.238281 C 1.425781 -1.757812 1.480469 -1.367188 1.59375 -1.058594 C 1.796875 -0.480469 2.179688 -0.191406 2.742188 -0.191406 C 3.085938 -0.191406 3.402344 -0.289062 3.699219 -0.480469 C 3.867188 -0.589844 4.066406 -0.765625 4.296875 -1.007812 L 4.496094 -0.847656 C 4.234375 -0.554688 4.007812 -0.34375 3.808594 -0.214844 C 3.457031 0.015625 3.066406 0.132812 2.636719 0.132812 C 1.980469 0.132812 1.429688 -0.0625 0.984375 -0.453125 C 0.492188 -0.882812 0.246094 -1.464844 0.246094 -2.199219 C 0.246094 -2.921875 0.480469 -3.507812 0.949219 -3.957031 C 1.394531 -4.378906 1.9375 -4.589844 2.578125 -4.589844 Z "/>
</g>
<g id="glyph-0-10">
<path d="M 0.148438 -1.527344 C 0.148438 -1.992188 0.289062 -2.378906 0.574219 -2.6875 C 0.859375 -3 1.21875 -3.15625 1.652344 -3.15625 C 2.089844 -3.15625 2.453125 -2.996094 2.734375 -2.679688 C 3.015625 -2.363281 3.15625 -1.976562 3.15625 -1.527344 C 3.15625 -1.082031 3.015625 -0.699219 2.738281 -0.378906 C 2.460938 -0.0585938 2.097656 0.101562 1.652344 0.101562 C 1.21875 0.101562 0.855469 -0.0546875 0.574219 -0.367188 C 0.289062 -0.679688 0.148438 -1.066406 0.148438 -1.527344 Z M 1.125 -1.527344 C 1.125 -1.058594 1.148438 -0.734375 1.199219 -0.546875 C 1.273438 -0.257812 1.425781 -0.113281 1.652344 -0.113281 C 1.867188 -0.113281 2.007812 -0.226562 2.074219 -0.445312 C 2.140625 -0.667969 2.175781 -1.027344 2.175781 -1.527344 C 2.175781 -2.023438 2.140625 -2.382812 2.070312 -2.605469 C 2 -2.828125 1.859375 -2.941406 1.652344 -2.941406 C 1.425781 -2.941406 1.277344 -2.796875 1.203125 -2.507812 C 1.152344 -2.3125 1.125 -1.988281 1.125 -1.527344 Z "/>
</g>
<g id="glyph-0-11">
<path d="M 0.121094 -0.160156 C 0.25 -0.175781 0.335938 -0.207031 0.386719 -0.25 C 0.4375 -0.296875 0.464844 -0.382812 0.46875 -0.515625 L 0.476562 -0.710938 L 0.476562 -2.523438 C 0.476562 -2.660156 0.453125 -2.757812 0.402344 -2.804688 C 0.355469 -2.855469 0.261719 -2.890625 0.121094 -2.90625 L 0.121094 -3.070312 L 1.386719 -3.070312 L 1.386719 -2.546875 C 1.527344 -2.730469 1.667969 -2.875 1.808594 -2.984375 C 1.945312 -3.09375 2.105469 -3.148438 2.289062 -3.148438 C 2.425781 -3.148438 2.546875 -3.105469 2.65625 -3.015625 C 2.765625 -2.929688 2.824219 -2.800781 2.824219 -2.628906 C 2.824219 -2.5 2.785156 -2.394531 2.707031 -2.308594 C 2.628906 -2.222656 2.53125 -2.179688 2.40625 -2.179688 C 2.265625 -2.179688 2.140625 -2.246094 2.039062 -2.378906 C 1.9375 -2.511719 1.863281 -2.578125 1.824219 -2.578125 C 1.734375 -2.578125 1.644531 -2.523438 1.554688 -2.414062 C 1.464844 -2.304688 1.417969 -2.148438 1.417969 -1.945312 L 1.417969 -0.683594 C 1.417969 -0.460938 1.453125 -0.324219 1.515625 -0.269531 C 1.578125 -0.214844 1.707031 -0.175781 1.898438 -0.160156 L 1.898438 0 L 0.121094 0 Z "/>
</g>
<g id="glyph-0-12">
<path d="M 1.460938 -0.382812 C 1.570312 -0.382812 1.671875 -0.414062 1.765625 -0.480469 C 1.816406 -0.519531 1.878906 -0.578125 1.949219 -0.660156 L 1.949219 -1.632812 C 1.773438 -1.589844 1.617188 -1.523438 1.480469 -1.429688 C 1.253906 -1.269531 1.140625 -1.070312 1.140625 -0.824219 C 1.140625 -0.679688 1.171875 -0.566406 1.238281 -0.492188 C 1.304688 -0.417969 1.378906 -0.382812 1.460938 -0.382812 Z M 0.167969 -0.621094 C 0.167969 -0.921875 0.3125 -1.160156 0.601562 -1.335938 C 0.890625 -1.511719 1.34375 -1.6875 1.960938 -1.867188 L 1.960938 -2.351562 C 1.960938 -2.546875 1.917969 -2.695312 1.835938 -2.789062 C 1.75 -2.882812 1.601562 -2.929688 1.390625 -2.929688 C 1.269531 -2.929688 1.171875 -2.90625 1.09375 -2.863281 C 1.019531 -2.820312 0.980469 -2.761719 0.980469 -2.695312 C 0.980469 -2.667969 0.984375 -2.648438 0.992188 -2.628906 C 1 -2.613281 1.015625 -2.59375 1.03125 -2.574219 L 1.070312 -2.53125 C 1.101562 -2.492188 1.125 -2.453125 1.144531 -2.40625 C 1.164062 -2.363281 1.171875 -2.316406 1.171875 -2.265625 C 1.171875 -2.140625 1.128906 -2.042969 1.046875 -1.972656 C 0.964844 -1.90625 0.867188 -1.871094 0.753906 -1.871094 C 0.625 -1.871094 0.519531 -1.910156 0.429688 -1.984375 C 0.339844 -2.0625 0.292969 -2.171875 0.292969 -2.316406 C 0.292969 -2.570312 0.414062 -2.773438 0.65625 -2.921875 C 0.894531 -3.074219 1.191406 -3.148438 1.542969 -3.148438 C 1.921875 -3.148438 2.238281 -3.074219 2.492188 -2.929688 C 2.742188 -2.78125 2.867188 -2.511719 2.867188 -2.117188 L 2.867188 -0.5 C 2.867188 -0.453125 2.878906 -0.414062 2.90625 -0.378906 C 2.929688 -0.34375 2.957031 -0.328125 2.988281 -0.328125 C 3.015625 -0.328125 3.039062 -0.332031 3.058594 -0.34375 C 3.078125 -0.351562 3.109375 -0.378906 3.15625 -0.421875 L 3.253906 -0.285156 C 3.125 -0.132812 2.980469 -0.0234375 2.824219 0.0351562 C 2.722656 0.0742188 2.617188 0.09375 2.507812 0.09375 C 2.308594 0.09375 2.164062 0.0351562 2.074219 -0.078125 C 2.023438 -0.144531 1.984375 -0.238281 1.960938 -0.367188 C 1.777344 -0.183594 1.566406 -0.0546875 1.335938 0.0234375 C 1.195312 0.0703125 1.054688 0.09375 0.917969 0.09375 C 0.734375 0.09375 0.566406 0.0351562 0.40625 -0.078125 C 0.25 -0.195312 0.167969 -0.375 0.167969 -0.621094 Z "/>
</g>
<g id="glyph-0-13">
<path d="M 1.71875 -3.15625 C 2 -3.15625 2.242188 -3.085938 2.445312 -2.949219 C 2.652344 -2.8125 2.753906 -2.636719 2.753906 -2.421875 C 2.753906 -2.308594 2.714844 -2.207031 2.632812 -2.121094 C 2.550781 -2.039062 2.445312 -1.996094 2.320312 -1.996094 C 2.234375 -1.996094 2.164062 -2.015625 2.101562 -2.054688 C 1.980469 -2.125 1.921875 -2.25 1.921875 -2.433594 C 1.921875 -2.453125 1.921875 -2.480469 1.925781 -2.519531 C 1.925781 -2.554688 1.925781 -2.597656 1.925781 -2.640625 C 1.925781 -2.757812 1.898438 -2.835938 1.847656 -2.882812 C 1.789062 -2.925781 1.726562 -2.945312 1.652344 -2.945312 C 1.445312 -2.945312 1.300781 -2.832031 1.214844 -2.605469 C 1.128906 -2.378906 1.085938 -2.121094 1.085938 -1.828125 C 1.085938 -1.410156 1.167969 -1.058594 1.332031 -0.777344 C 1.496094 -0.496094 1.71875 -0.355469 2 -0.355469 C 2.175781 -0.355469 2.324219 -0.394531 2.449219 -0.472656 C 2.523438 -0.519531 2.613281 -0.601562 2.722656 -0.722656 L 2.84375 -0.609375 C 2.628906 -0.308594 2.375 -0.101562 2.082031 0.0117188 C 1.929688 0.0703125 1.765625 0.101562 1.59375 0.101562 C 1.164062 0.101562 0.816406 -0.0507812 0.542969 -0.359375 C 0.273438 -0.664062 0.136719 -1.039062 0.136719 -1.476562 C 0.136719 -1.941406 0.28125 -2.339844 0.566406 -2.664062 C 0.855469 -2.992188 1.238281 -3.15625 1.71875 -3.15625 Z "/>
</g>
<g id="glyph-0-14">
<path d="M 1.679688 -0.285156 C 1.824219 -0.285156 1.953125 -0.347656 2.066406 -0.476562 C 2.179688 -0.605469 2.238281 -0.695312 2.238281 -0.746094 L 2.238281 -2.367188 C 2.238281 -2.421875 2.1875 -2.5 2.089844 -2.609375 C 1.992188 -2.714844 1.863281 -2.765625 1.703125 -2.765625 C 1.464844 -2.765625 1.304688 -2.601562 1.222656 -2.277344 C 1.175781 -2.101562 1.152344 -1.851562 1.152344 -1.53125 C 1.152344 -1.1875 1.175781 -0.929688 1.21875 -0.753906 C 1.296875 -0.441406 1.453125 -0.285156 1.679688 -0.285156 Z M 0.167969 -1.441406 C 0.167969 -1.96875 0.292969 -2.386719 0.546875 -2.691406 C 0.796875 -2.996094 1.097656 -3.148438 1.449219 -3.148438 C 1.625 -3.148438 1.78125 -3.105469 1.917969 -3.019531 C 2.003906 -2.964844 2.109375 -2.871094 2.238281 -2.738281 L 2.238281 -3.957031 C 2.238281 -4.125 2.203125 -4.230469 2.140625 -4.269531 C 2.074219 -4.308594 1.9375 -4.332031 1.734375 -4.34375 L 1.734375 -4.503906 L 3.171875 -4.503906 L 3.171875 -0.671875 C 3.171875 -0.53125 3.195312 -0.4375 3.25 -0.382812 C 3.300781 -0.328125 3.402344 -0.296875 3.554688 -0.285156 L 3.554688 -0.128906 C 3.179688 -0.09375 2.941406 -0.0664062 2.832031 -0.046875 C 2.722656 -0.0273438 2.53125 0.0195312 2.257812 0.09375 L 2.257812 -0.34375 C 2.132812 -0.214844 2.019531 -0.117188 1.914062 -0.0546875 C 1.75 0.0429688 1.570312 0.09375 1.378906 0.09375 C 1.054688 0.09375 0.773438 -0.0429688 0.53125 -0.320312 C 0.289062 -0.59375 0.167969 -0.96875 0.167969 -1.441406 Z "/>
</g>
<g id="glyph-0-15">
<path d="M 0.246094 -2.214844 C 0.246094 -2.878906 0.457031 -3.4375 0.886719 -3.890625 C 1.328125 -4.355469 1.894531 -4.589844 2.582031 -4.589844 C 2.855469 -4.589844 3.132812 -4.539062 3.40625 -4.433594 C 3.679688 -4.332031 3.847656 -4.28125 3.917969 -4.28125 C 3.988281 -4.28125 4.046875 -4.304688 4.089844 -4.355469 C 4.132812 -4.40625 4.167969 -4.480469 4.195312 -4.582031 L 4.382812 -4.582031 L 4.382812 -3.023438 L 4.210938 -3.023438 C 4.050781 -3.363281 3.886719 -3.628906 3.722656 -3.824219 C 3.410156 -4.183594 3.054688 -4.367188 2.660156 -4.367188 C 2.230469 -4.367188 1.917969 -4.179688 1.71875 -3.804688 C 1.519531 -3.433594 1.421875 -2.90625 1.421875 -2.230469 C 1.421875 -1.675781 1.515625 -1.179688 1.699219 -0.742188 C 1.882812 -0.308594 2.234375 -0.0898438 2.761719 -0.0898438 C 3.046875 -0.0898438 3.234375 -0.152344 3.332031 -0.269531 C 3.390625 -0.335938 3.417969 -0.441406 3.417969 -0.578125 L 3.417969 -1.28125 C 3.417969 -1.480469 3.355469 -1.613281 3.234375 -1.675781 C 3.152344 -1.714844 2.988281 -1.738281 2.746094 -1.742188 L 2.746094 -1.910156 L 5.03125 -1.910156 L 5.03125 -1.742188 C 4.800781 -1.734375 4.648438 -1.6875 4.570312 -1.601562 C 4.496094 -1.519531 4.460938 -1.363281 4.460938 -1.132812 L 4.460938 -0.285156 C 4.3125 -0.191406 4.074219 -0.101562 3.742188 -0.0117188 C 3.414062 0.0820312 3.042969 0.128906 2.636719 0.128906 C 1.898438 0.128906 1.304688 -0.105469 0.863281 -0.574219 C 0.449219 -1.007812 0.246094 -1.554688 0.246094 -2.214844 Z "/>
</g>
<g id="glyph-0-16">
<path d="M 1.949219 -0.277344 C 2.191406 -0.277344 2.355469 -0.4375 2.4375 -0.753906 C 2.484375 -0.929688 2.507812 -1.183594 2.507812 -1.515625 C 2.507812 -1.894531 2.472656 -2.199219 2.402344 -2.425781 C 2.332031 -2.652344 2.191406 -2.765625 1.980469 -2.765625 C 1.835938 -2.765625 1.707031 -2.703125 1.59375 -2.578125 C 1.480469 -2.453125 1.425781 -2.359375 1.425781 -2.304688 L 1.425781 -0.683594 C 1.425781 -0.617188 1.480469 -0.535156 1.585938 -0.429688 C 1.695312 -0.328125 1.816406 -0.277344 1.949219 -0.277344 Z M 0.121094 1.214844 C 0.265625 1.199219 0.363281 1.164062 0.414062 1.113281 C 0.464844 1.0625 0.492188 0.96875 0.492188 0.828125 L 0.492188 -2.523438 C 0.492188 -2.660156 0.46875 -2.753906 0.417969 -2.804688 C 0.371094 -2.851562 0.277344 -2.886719 0.136719 -2.90625 L 0.136719 -3.070312 L 1.410156 -3.070312 L 1.410156 -2.628906 C 1.5 -2.78125 1.589844 -2.894531 1.675781 -2.964844 C 1.832031 -3.089844 2.03125 -3.15625 2.277344 -3.15625 C 2.625 -3.15625 2.914062 -3.023438 3.144531 -2.761719 C 3.375 -2.5 3.492188 -2.105469 3.492188 -1.585938 C 3.492188 -1.101562 3.367188 -0.699219 3.121094 -0.382812 C 2.871094 -0.0664062 2.570312 0.09375 2.214844 0.09375 C 2.03125 0.09375 1.859375 0.0429688 1.695312 -0.0664062 C 1.609375 -0.121094 1.519531 -0.203125 1.425781 -0.304688 L 1.425781 0.257812 C 1.429688 0.558594 1.429688 0.726562 1.433594 0.761719 C 1.449219 0.9375 1.492188 1.058594 1.566406 1.125 C 1.640625 1.1875 1.769531 1.226562 1.945312 1.238281 L 1.945312 1.375 L 0.121094 1.375 Z "/>
</g>
<g id="glyph-0-17">
<path d="M 0.109375 -0.160156 C 0.230469 -0.175781 0.320312 -0.207031 0.375 -0.257812 C 0.433594 -0.308594 0.460938 -0.410156 0.460938 -0.5625 L 0.460938 -3.957031 C 0.460938 -4.089844 0.4375 -4.183594 0.390625 -4.238281 C 0.34375 -4.289062 0.25 -4.324219 0.109375 -4.34375 L 0.109375 -4.503906 L 1.398438 -4.503906 L 1.398438 -2.628906 C 1.535156 -2.792969 1.675781 -2.921875 1.828125 -3.011719 C 1.980469 -3.101562 2.148438 -3.148438 2.335938 -3.148438 C 2.59375 -3.148438 2.804688 -3.074219 2.972656 -2.925781 C 3.140625 -2.777344 3.222656 -2.523438 3.222656 -2.164062 L 3.222656 -0.5625 C 3.222656 -0.414062 3.25 -0.316406 3.300781 -0.269531 C 3.351562 -0.222656 3.433594 -0.1875 3.554688 -0.160156 L 3.554688 0 L 1.988281 0 L 1.988281 -0.160156 C 2.109375 -0.183594 2.191406 -0.214844 2.234375 -0.257812 C 2.277344 -0.296875 2.296875 -0.390625 2.296875 -0.539062 L 2.296875 -2.152344 C 2.296875 -2.304688 2.28125 -2.417969 2.253906 -2.492188 C 2.199219 -2.628906 2.097656 -2.699219 1.945312 -2.699219 C 1.828125 -2.699219 1.710938 -2.644531 1.585938 -2.539062 C 1.464844 -2.433594 1.402344 -2.359375 1.402344 -2.320312 L 1.402344 -0.539062 C 1.402344 -0.390625 1.425781 -0.296875 1.46875 -0.257812 C 1.511719 -0.214844 1.59375 -0.183594 1.710938 -0.160156 L 1.710938 0 L 0.109375 0 Z "/>
</g>
</g>
<image id="source-12" x="0" y="0" width="0" height="0"/>
<mask id="mask-0">
<use xlink:href="#source-12"/>
</mask>
</defs>
<g fill="rgb(0%, 0%, 0%)" fill-opacity="1">
<use xlink:href="#glyph-0-0" x="30" y="25"/>
<use xlink:href="#glyph-0-1" x="35" y="25"/>
<use xlink:href="#glyph-0-2" x="39" y="25"/>
<use xlink:href="#glyph-0-3" x="42" y="25"/>
<use xlink:href="#glyph-0-4" x="48" y="25"/>
<use xlink:href="#glyph-0-5" x="51" y="25"/>
<use xlink:href="#glyph-0-6" x="55" y="25"/>
<use xlink:href="#glyph-0-7" x="57" y="25"/>
<use xlink:href="#glyph-0-8" x="59" y="25"/>
<use xlink:href="#glyph-0-5" x="62" y="25"/>
<use xlink:href="#glyph-0-7" x="66" y="25"/>
<use xlink:href="#glyph-0-9" x="68" y="25"/>
<use xlink:href="#glyph-0-10" x="73" y="25"/>
<use xlink:href="#glyph-0-5" x="76" y="25"/>
<use xlink:href="#glyph-0-6" x="80" y="25"/>
<use xlink:href="#glyph-0-11" x="82" y="25"/>
<use xlink:href="#glyph-0-12" x="85" y="25"/>
<use xlink:href="#glyph-0-13" x="88" y="25"/>
<use xlink:href="#glyph-0-6" x="91" y="25"/>
<use xlink:href="#glyph-0-4" x="93" y="25"/>
<use xlink:href="#glyph-0-14" x="96" y="25"/>
<use xlink:href="#glyph-0-7" x="100" y="25"/>
<use xlink:href="#glyph-0-15" x="102" y="25"/>
<use xlink:href="#glyph-0-11" x="107" y="25"/>
<use xlink:href="#glyph-0-12" x="110" y="25"/>
<use xlink:href="#glyph-0-16" x="113" y="25"/>
<use xlink:href="#glyph-0-17" x="117" y="25"/>
</g>
</svg>
